<svg width="202" height="40" viewBox="0 0 202 40" fill="none" xmlns="http://www.w3.org/2000/svg">
<path fill-rule="evenodd" clip-rule="evenodd" d="M55.0294 11.791C47.1583 11.791 41.2266 17.6154 41.2266 26.0668C41.2266 34.3468 46.9303 40 54.9723 40C61.0182 40 65.9233 36.7452 67.3492 31.4346H62.6153C61.2462 34.1756 58.5084 35.66 55.1432 35.66C50.352 35.66 46.7593 32.7478 46.3598 27.0946H67.5775C67.6914 26.3522 67.7485 25.7242 67.7485 24.9247C67.7485 16.9873 62.4438 11.791 55.0294 11.791ZM46.5878 23.1543C47.5005 18.5291 50.7518 15.9595 55.0294 15.9595C59.1362 15.9595 62.0448 18.3008 62.6723 23.1543H46.5878ZM84.3098 23.8968L81.0588 23.2688C76.6671 22.4122 75.6976 21.3844 75.6976 19.7283C75.6976 17.387 77.6937 15.8452 81.1156 15.8452C84.4808 15.8452 86.4201 17.3299 86.7055 19.8426H91.7245C91.2679 14.7034 87.4467 11.7909 81.4008 11.7909C74.842 11.7909 70.8492 15.2743 70.8492 20.0137C70.8492 23.8968 73.3588 26.2953 78.6632 27.3231L81.9145 27.9511C85.964 28.7506 87.3325 29.9498 87.3325 31.8342C87.3325 34.2327 85.1081 35.9456 81.6291 35.9456C78.2932 35.9456 75.9928 34.3682 75.5084 31.4329H70.4769C70.9782 36.722 75.1626 39.9999 81.572 39.9999C88.2452 39.9999 92.1809 36.4594 92.1809 31.4342C92.1809 27.3231 89.7281 24.9246 84.3098 23.8968ZM108.544 16.4899C111.837 16.4899 114.738 18.1971 116.416 20.7724L120.354 18.2101C117.841 14.347 113.492 11.7909 108.544 11.7909C100.763 11.7909 94.4557 18.1057 94.4557 25.8955C94.4557 33.6851 100.763 39.9999 108.544 39.9999C113.39 39.9999 117.665 37.5488 120.2 33.8173L116.313 31.176C114.621 33.6638 111.77 35.301 108.544 35.301C103.363 35.301 99.1489 31.0818 99.1489 25.8955C99.1489 20.7093 103.363 16.4899 108.544 16.4899ZM123.636 39.3147H128.655V11.9166H123.636V39.3147ZM145.768 11.791C137.897 11.791 131.965 17.6154 131.965 26.0668C131.965 34.3468 137.669 40 145.711 40C151.757 40 156.662 36.7452 158.088 31.4346H153.354C151.985 34.1756 149.247 35.66 145.882 35.66C141.091 35.66 137.498 32.7478 137.098 27.0946H158.316C158.43 26.3522 158.487 25.7242 158.487 24.9247C158.487 16.9873 153.183 11.791 145.768 11.791ZM137.327 23.1543C138.239 18.5291 141.49 15.9595 145.768 15.9595C149.875 15.9595 152.783 18.3008 153.411 23.1543H137.327ZM202 17.5013V12.4761H195.438V4.39926H190.318V27.6187C190.318 34.068 195.558 39.3148 202 39.3148V34.1885C198.382 34.1885 195.438 31.2415 195.438 27.6187V17.5013H202ZM174.3 11.5503C167.858 11.5503 162.617 16.797 162.617 23.2461V39.3146H167.737V23.2461C167.737 19.6235 170.681 16.6762 174.3 16.6762C177.918 16.6762 180.862 19.6235 180.862 23.2461V39.3146H185.982V23.2461C185.982 16.797 180.741 11.5503 174.3 11.5503ZM29.1388 23.2462V39.3147H34.2591V23.2462C34.2591 19.6236 37.2026 16.6763 40.8205 16.6763V11.5504C34.3795 11.5504 29.1388 16.7968 29.1388 23.2462ZM14.2379 0L0 0.00493505V39.3147H5.12024V27.0898H14.2379C21.6974 27.0898 27.7667 21.0135 27.7667 13.5452C27.7667 6.07635 21.6974 0 14.2379 0ZM14.2379 21.9638H5.12024V5.12596H14.2379C18.8745 5.12596 22.6467 8.90309 22.6467 13.5452C22.6467 18.1872 18.8745 21.9638 14.2379 21.9638ZM126.146 1.84659C124.197 1.84659 122.616 3.42841 122.616 5.37983C122.616 7.33125 124.197 8.91333 126.146 8.91333C128.095 8.91333 129.675 7.33125 129.675 5.37983C129.675 3.42841 128.095 1.84659 126.146 1.84659Z" fill="black"/>
</svg>
